<?xml version="1.0" encoding="utf-8"?>
<!-- Generator: Adobe Illustrator 19.2.0, SVG Export Plug-In . SVG Version: 6.00 Build 0)  -->
<svg version="1.1" id="Warstwa_1" xmlns="http://www.w3.org/2000/svg" xmlns:xlink="http://www.w3.org/1999/xlink" x="0px" y="0px"
	 viewBox="0 0 32 32" style="enable-background:new 0 0 32 32;" xml:space="preserve">
<style type="text/css">
	.st0{fill:#414B53;}
	.st1{clip-path:url(#SVGID_2_);}
	.st2{fill:#FFFFFF;}
	.st3{fill:#242424;}
	.st4{fill:#EAEAEA;}
	.st5{display:none;}
	.st6{display:inline;}
</style>
<rect class="st0" width="32" height="32"/>
<g>
	<defs>
		<rect id="SVGID_1_" x="0" width="32" height="32"/>
	</defs>
	<clipPath id="SVGID_2_">
		<use xlink:href="#SVGID_1_"  style="overflow:visible;"/>
	</clipPath>
	<g id="lama" class="st1">
		<g id="body">
			<g>
				<path class="st2" d="M53,51.5c2.4,0,3.4-1.5,5-1.5c-0.4-0.4-0.7-0.7-1.1-1.1c0.2-0.4,0.3-0.9,0.5-1.3c-0.6-0.1-1.3-0.3-1.9-0.4
					c0-0.5,0-1,0-1.5c-1.9,0.5-3.7,0.9-5.6,1.4c0.3-0.3,0.7-0.6,1-1c-1.8,0.3-3.6,0.6-5.4,0.8c0.3-0.3,0.6-0.6,0.9-0.9
					c-1.6,0-3.2,0.1-4.7,0.1c0.1-0.3,0.1-0.7,0.2-1c-1.7,0.2-3.3,0.4-5,0.7c0.1-0.1,0.1-0.2,0.2-0.4c-1.6,0.3-3.3,0.7-4.9,1
					c0.2-0.3,0.4-0.7,0.7-1c-15.5,0-4.1-26.5-11.7-34.1c0.4-0.2,2.5-6.2,2.5-6.2s-2.8-4.6-5.5-4.6c-0.4,0-1.8,0.1-2.1,0.1
					c0,2.6,2.8,5.8,2.8,9.5c-2.4,0-4.8,0-7.2,0.1c0-3.3,1.6-6.9,1.6-10.2c-3.7,0-5,2.8-5.9,5.8c0,2.5,2.5,3.8,2.5,4.7
					c-1.7,1.1-2.4,2.5-2.9,4c0,9.6,2.2,23.6-1.2,32.3c-0.1,0.3-0.1,0.6-0.2,0.8c0.6-0.1,1.2-0.2,1.7-0.2c0,0-2.1,4.6-2.1,6.2
					c0.4-0.6,0.9-1.1,1.4-1.7c-0.3,2-0.7,4-1,6c0.3-0.2,0.7-0.5,1-0.7c-0.3,2.2-0.5,4.4-0.8,6.6c0.4-0.5,0.8-1.1,1.3-1.6
					c0,1.2,0,2.5,0,3.7c0.3,0,0.6,0,1,0c-0.4,1.6-0.8,3.1-1.3,4.7c0.4-0.6,0.9-1.2,1.3-1.8c0.7,3,1.5,6,2.2,9
					c-0.1,5.6-0.2,11.3-0.4,16.9c2.2,0,1.6,0,3.7-0.1c0.2-4.7,1.1-11.3,2.2-16.7c0.4-1.6,1.4-2.9,1.5-4.4c0.2,1.4,1.3,2.9,1.6,4.6
					c0.8,5.1,0.8,11.1,1.5,15.5c1.4,0.2,1.8,0.1,3.1,0c0.2-6.6,0.4-13.3,1.6-20.6c1,0.1,1.9,0.2,2.9,0.4c0.5,0.8,1.1,1.6,1.6,2.4
					c0.2,0,0.5,0,0.7,0c0-0.7,0.1-1.4,0.1-2.1c0.5,0.9,1,1.9,1.6,2.8c-0.1-0.7-0.1-1.5-0.2-2.2c0.8,0.6,1.7,1.1,2.5,1.7
					c-0.4-1.3-0.7-2.6-1.1-3.9c0.9-0.3,3.1-0.1,2.8-1c3,9.4,2.8,14.6,2.8,22.2c1.7-0.1,1.9,0,3.6,0c0-5.7,0.5-13.9,0.5-19.5
					c0-0.1,0.8,1.8,0.8,1.7c-0.1,5.7,0.8,12.1,0.7,17.8c1.7-0.1,2.1,0.1,3.8,0c0-8.5,4-16.8,4-23.5c0.3,0.1,0.6,0.3,1,0.4
					c-0.3-1.1-0.7-2.2-1-3.3c0-0.5,0-0.9,0-1.4c0.4,0.1,0.7,0.2,1.1,0.4c-0.1-2.8-0.2-5.5-0.4-8.3c0.4,0.1,0.9,0.1,1.3,0.2
					C53.8,55.8,53.4,53.7,53,51.5z"/>
			</g>
		</g>
		<g id="head">
			<g id="eye1">
				<g>
					<ellipse class="st3" cx="10.3" cy="19.7" rx="0.9" ry="0.9"/>
				</g>
			</g>
			<g id="eye2">
				<g>
					<ellipse class="st3" cx="21.4" cy="19.7" rx="0.9" ry="0.9"/>
				</g>
			</g>
			<g id="mouth_1_">
				<g id="Elipsa_3">
					<g>
						<path class="st4" d="M15.8,18.5c-1.9,0-3.1,1.8-3,4c0.1,2.2,1.1,4,3,4c1.9,0,2.8-1.7,2.8-3.9C18.7,20.4,17.8,18.5,15.8,18.5z"
							/>
					</g>
				</g>
				<g id="smile">
					<g>
						<path class="st3" d="M16.8,21.9c-0.6,0.3-1.7,0-1.9,0c-0.4,0-0.9-0.6-0.9-0.6v0.1c0,0,0.4,0.7,0.9,0.7c0.5,0,1.4,0.2,1.9-0.1
							c0.4-0.3,0.7-0.5,0.7-0.5v-0.1C17.5,21.4,17.3,21.7,16.8,21.9z"/>
					</g>
				</g>
				<g id="face" class="st5">
					<g class="st6">
						<path class="st3" d="M17,22c-0.9,0.1-1.8,0.2-2.8,0.1c0,0-0.3,0.1-0.2,0.1C15,22.2,16,22.2,17,22C17,22,17.2,21.9,17,22L17,22
							z"/>
					</g>
				</g>
				<g id="cheek" class="st5">
					<g class="st6">
						<path class="st3" d="M16.9,21.4c-0.1,0.7,0.1,1.2,0.4,1.8c0,0.1,0.3,0,0.2-0.1c-0.2-0.6-0.5-1.1-0.4-1.8
							C17.2,21.3,16.9,21.3,16.9,21.4L16.9,21.4z"/>
					</g>
				</g>
				<g id="noseline">
					<g>
						<polygon class="st3" points="15.7,20 15.7,22 15.8,22 15.8,20 						"/>
					</g>
				</g>
				<g id="nose">
					<g>
						<path class="st3" d="M15.8,19.2c-0.8,0-1.4,0.4-1.4,0.9s0.7,0.6,1.4,0.6s1.4-0.1,1.4-0.6S16.5,19.2,15.8,19.2z"/>
					</g>
				</g>
			</g>
		</g>
		<g id="tie">
			<g>
				<path class="st3" d="M20.6,37.2c-0.7-0.2-4,1.7-4,1.7c-0.2-0.2-0.5-0.3-0.8-0.3s-0.6,0.1-0.8,0.3c0,0-3.3-2-4-1.6
					c-0.6,0.4-0.7,4.3,0,4.7c0.7,0.4,4-1.6,4-1.6c0.2,0.2,0.5,0.3,0.8,0.3c0.3,0,0.6-0.1,0.8-0.3c0,0,3.5,2,4,1.6
					C21.1,41.4,21.3,37.4,20.6,37.2z"/>
			</g>
		</g>
		<g id="glasses">
			<g>
				<path class="st3" d="M27.4,17c0-0.2,0-0.3,0-0.5c0-0.1,0-0.1-0.1-0.1c0,0-0.1,0-0.1,0c-0.7-0.1-1.4-0.2-2.2-0.3
					c-0.6,0-1.2-0.1-1.8-0.1c-1.1,0-2.3,0-3.4,0.1c-0.7,0.1-1.4,0.2-2,0.4c-0.3,0.1-0.7,0.2-1,0.3c-0.5,0.2-1.1,0.2-1.6,0.1
					c-0.3-0.1-0.6-0.1-1-0.3c-0.6-0.2-1.1-0.4-1.7-0.5C11.3,16,10.1,15.9,9,16c-0.9,0-1.7,0-2.5,0.1c-0.6,0.1-1.3,0.2-1.9,0.2
					c-0.1,0-0.3,0.1-0.4,0.1c-0.1,0-0.1,0.1-0.1,0.1c0,0.4,0,0.8,0,1.2c0,0.1,0,0.1,0,0.2c0,0,0,0.1,0.1,0.1c0,0,0.1,0,0.1,0.1
					c0.2,0.1,0.3,0.4,0.4,0.6c0.1,0.2,0.1,0.3,0.1,0.5c0,0.1,0.1,0.2,0.1,0.3c0.1,0.5,0.2,1,0.3,1.5c0.1,0.5,0.2,1,0.5,1.4
					c0.2,0.5,0.6,0.9,1.1,1.1c0.3,0.1,0.6,0.2,1,0.3c0.6,0.1,1.2,0.1,1.8,0.1c0.6,0,1.2-0.1,1.8-0.3c0.4-0.1,0.8-0.3,1.2-0.6
					c0.5-0.5,1-1,1.3-1.6c0.3-0.6,0.6-1.3,0.8-2c0.1-0.2,0.1-0.4,0.2-0.6c0.1-0.3,0.3-0.4,0.6-0.5c0.1,0,0.2,0,0.3,0
					c0.2,0,0.4,0.1,0.6,0.2c0.1,0.1,0.1,0.2,0.2,0.3c0.1,0.2,0.2,0.4,0.2,0.6c0.3,0.8,0.6,1.6,1,2.4c0.4,0.6,0.8,1.1,1.5,1.5
					c0.4,0.2,0.9,0.4,1.4,0.5c0.7,0.1,1.5,0.2,2.3,0.1c0.5,0,0.9-0.1,1.4-0.2c0.4-0.1,0.9-0.4,1.2-0.7c0.2-0.2,0.3-0.5,0.4-0.8
					c0.2-0.6,0.4-1.3,0.5-1.9c0.1-0.3,0.1-0.6,0.2-0.9c0-0.2,0.1-0.3,0.1-0.5s0.1-0.3,0.2-0.4c0.1-0.1,0.2-0.3,0.3-0.3
					c0.1,0,0.1-0.1,0.1-0.1c0,0,0-0.1,0-0.1C27.4,17.5,27.4,17.3,27.4,17z M5,17.3c-0.2,0-0.4,0-0.4-0.1C4.6,17.1,4.8,17,5,17
					s0.4,0,0.4,0.1C5.5,17.2,5.3,17.3,5,17.3z M13.7,19.7c-0.2,0.7-0.4,1.3-0.8,1.9c-0.2,0.3-0.4,0.6-0.7,0.9
					c-0.4,0.3-0.8,0.5-1.3,0.7c-1,0.2-1.9,0.3-2.9,0.2c-0.2,0-0.4-0.1-0.6-0.1c-0.4-0.1-0.7-0.3-0.9-0.7c-0.2-0.4-0.4-0.8-0.5-1.2
					c-0.1-0.6-0.2-1.1-0.3-1.7c0-0.3,0-0.7,0-1c0-0.2,0-0.3,0.1-0.5C6,17.5,6.4,17.1,7,17c0.5-0.1,1.1-0.2,1.6-0.3
					c0.4,0,0.8,0,1.1-0.1c0.9,0,1.7,0.1,2.5,0.2c0.3,0.1,0.6,0.1,0.9,0.3c0.1,0.1,0.3,0.2,0.4,0.3c0.2,0.2,0.3,0.4,0.3,0.7
					C13.9,18.7,13.8,19.2,13.7,19.7z M25.2,21.8c-0.1,0.3-0.3,0.6-0.5,0.8c-0.3,0.3-0.6,0.4-0.9,0.5c-0.4,0.1-0.9,0.1-1.3,0.1
					c-0.7,0-1.4-0.1-2-0.2c-0.7-0.1-1.2-0.5-1.6-1c-0.5-0.7-0.9-1.4-1.1-2.3c-0.1-0.4-0.2-0.8-0.1-1.2c0-0.2,0-0.3,0-0.5
					c0.1-0.4,0.3-0.7,0.7-0.9c0.4-0.2,0.8-0.3,1.2-0.3c0.5-0.1,0.9-0.2,1.4-0.2c0.4,0,0.7,0,1,0c1,0,1.8,0.1,2.7,0.4
					c0.1,0,0.3,0.1,0.4,0.2c0.1,0.1,0.2,0.2,0.3,0.3c0.1,0.1,0.1,0.3,0.2,0.5c0.1,0.2,0.1,0.4,0.1,0.6c0,0.3,0,0.6,0,0.9
					C25.7,20.3,25.5,21.1,25.2,21.8z M26.4,17.3c-0.2,0-0.4,0-0.4-0.1c0-0.1,0.2-0.1,0.4-0.1c0.2,0,0.4,0,0.4,0.1
					C26.9,17.2,26.7,17.3,26.4,17.3z"/>
			</g>
		</g>
	</g>
</g>
</svg>
